<svg xmlns="http://www.w3.org/2000/svg" viewBox="0 0 64 64"><path fill="none" d="M0 0h64v64H0z"/><path fill="#00a1e0" d="M23 6h22l-8 18h11L20 58l6-26H16l7-26z"/><path d="M20 60a2 2 0 0 1-1.95-2.45L23.49 34H16a2 2 0 0 1-1.93-2.52l7-26A2 2 0 0 1 23 4h22a2 2 0 0 1 1.83 2.81L40.08 22H48a2 2 0 0 1 1.54 3.27l-28 34A2 2 0 0 1 20 60zm-1.39-30H26a2 2 0 0 1 1.95 2.45l-4.09 17.72L43.76 26H37a2 2 0 0 1-1.83-2.81L41.92 8H24.53z" fill="#032e61"/><path d="M26 26a2 2 0 0 1-1.93-2.53l3-11a2 2 0 1 1 3.86 1.05l-3 11A2 2 0 0 1 26 26z" fill="#fff"/></svg>