<?xml version="1.0" standalone="no"?>
<!DOCTYPE svg PUBLIC "-//W3C//DTD SVG 20010904//EN"
 "http://www.w3.org/TR/2001/REC-SVG-20010904/DTD/svg10.dtd">
<svg version="1.0" xmlns="http://www.w3.org/2000/svg"
 width="700.000000pt" height="700.000000pt" viewBox="0 0 700.000000 700.000000"
 preserveAspectRatio="xMidYMid meet">
<metadata>
Created by potrace 1.11, written by Peter Selinger 2001-2013
</metadata>
<g transform="translate(0.000000,700.000000) scale(0.100000,-0.100000)"
fill="#000000" stroke="none">
<path d="M2488 6559 example-72 -11 -133 -52 -164 -111 -12 -23 -108 -362 -120 -423
-2 -11 -10 -42 -19 -70 -15 -52 -37 -132 -41 -151 -1 -6 -18 -69 -37 -140 -20
-71 -43 -154 -51 -184 -8 -30 -24 -91 -36 -135 -12 -44 -23 -87 -25 -95 -5
-21 -100 -375 -135 -500 -63 -228 -142 -525 -146 -548 -3 -14 -7 -29 -10 -33
-2 -4 -13 -43 -25 -86 -11 -43 -22 -85 -24 -93 -27 -101 -71 -268 -96 -363
-41 -159 -32 -212 44 -285 61 -59 70 -60 536 -61 233 0 425 -1 426 -3 3 -3
-29 -141 -92 -408 -15 -63 -28 -122 -30 -130 -1 -8 -14 -64 -28 -125 -15 -60
-29 -121 -32 -135 -5 -29 -66 -294 -89 -389 -9 -36 -17 -72 -19 -80 -14 -67
-65 -290 -69 -302 -3 -8 -7 -25 -10 -39 -2 -14 -9 -43 -14 -65 -6 -22 -13 -51
-16 -65 -2 -14 -23 -104 -45 -200 -167 -718 -164 -700 -139 -757 38 -88 106
-138 192 -142 55 -2 118 19 156 51 9 7 114 132 234 278 120 146 234 284 253
308 20 23 83 100 140 170 58 70 112 136 121 147 9 11 110 133 223 270 600 729
1579 1918 1623 1971 28 34 67 81 86 105 19 24 69 84 110 134 205 245 311 378
325 405 8 16 18 52 21 80 11 97 -62 199 -160 224 -27 7 -198 11 -479 10 -240
0 -437 3 -437 7 0 4 83 193 184 421 186 418 226 508 251 564 8 16 29 66 48
110 19 43 46 104 60 134 104 226 199 452 204 487 12 92 -42 188 -126 225 -45
20 -67 20 -1262 22 -669 0 -1236 -2 -1261 -5z"/>
</g>
</svg>
